<?xml version="1.0" standalone="no"?>
<!DOCTYPE svg PUBLIC "-//W3C//DTD SVG 20010904//EN"
 "http://www.w3.org/TR/2001/REC-SVG-20010904/DTD/svg10.dtd">
<svg version="1.0" xmlns="http://www.w3.org/2000/svg"
 width="1024.000000pt" height="1024.000000pt" viewBox="0 0 1024.000000 1024.000000"
 preserveAspectRatio="xMidYMid meet">
<metadata>
Created by potrace 1.11, written by Peter Selinger 2001-2013
</metadata>
<g transform="translate(0.000000,1024.000000) scale(0.100000,-0.100000)"
fill="#000000" stroke="none">
<path d="M4725 9235 c-605 -53 -1212 -255 -1735 -578 -163 -101 -394 -270
-512 -373 -102 -90 -448 -446 -442 -455 3 -5 1 -9 -3 -9 -14 0 -207 -256 -282
-376 -24 -38 -53 -82 -65 -99 -77 -111 -237 -443 -329 -685 -72 -187 -168
-551 -196 -740 -38 -267 -45 -363 -45 -625 0 -351 23 -566 96 -880 81 -351
183 -633 335 -925 36 -69 75 -143 86 -165 11 -22 37 -65 58 -95 20 -30 58 -88
84 -129 26 -40 88 -127 139 -193 50 -66 102 -136 115 -156 13 -20 121 -133
240 -252 234 -233 369 -343 644 -525 54 -36 100 -65 104 -65 3 0 20 -11 37
-24 70 -53 594 -306 634 -306 4 0 57 -17 117 -39 780 -278 1745 -278 2545 0
243 85 635 266 771 357 24 16 84 56 133 88 50 33 100 66 112 74 93 62 301 232
406 331 526 496 881 1064 1092 1745 119 387 170 734 170 1154 0 570 -99 1046
-329 1587 -52 121 -195 402 -229 448 -12 17 -46 68 -75 115 -30 47 -70 108
-91 135 -85 116 -151 202 -174 226 -14 15 -22 29 -19 32 3 3 -98 109 -223 234
-209 209 -362 341 -502 432 -20 13 -39 27 -42 31 -3 4 -70 49 -150 100 -152
98 -462 259 -615 321 -599 243 -1225 338 -1860 284z m625 -3945 l0 -1910 -260
0 -260 0 -2 693 c-2 380 -3 752 -3 825 l0 132 -762 0 -763 0 0 260 0 260 763
0 762 0 0 132 c0 73 1 445 3 826 l2 692 260 0 260 0 0 -1910z m1810 0 l0 -260
-790 0 -790 0 0 260 0 260 790 0 790 0 0 -260z"/>
</g>
</svg>
